<?xml version="1.0" encoding="utf-8"?>
<!-- Generator: Adobe Illustrator 16.0.0, SVG Export Plug-In . SVG Version: 6.00 Build 0)  -->
<!DOCTYPE svg PUBLIC "-//W3C//DTD SVG 1.1//EN" "http://www.w3.org/Graphics/SVG/1.1/DTD/svg11.dtd">
<svg version="1.1" id="Calque_1" xmlns="http://www.w3.org/2000/svg" xmlns:xlink="http://www.w3.org/1999/xlink" x="0px" y="0px"
	 width="600px" height="136.842px" viewBox="0 0 600 136.842" enable-background="new 0 0 600 136.842" xml:space="preserve">
<g>
	<circle fill="#E2EDBB" cx="70.032" cy="66.912" r="64.574"/>
	<g>
		<g>
			<path fill-rule="evenodd" clip-rule="evenodd" fill="#EAA327" d="M3.684,69.934C3.541,57.985,3.545,57.975,14.018,62.94
				c3.986,1.89,7.838,4.119,11.94,5.703c8.807,3.398,14.689,8.109,17.046,18.545c2.856,12.647,15.111,19.748,28.037,19.43
				c12.95-0.318,23.339-7.997,26.716-21.208c1.633-6.39,4.695-10.085,10.6-12.566c7.447-3.13,14.642-6.887,21.822-10.612
				c4.536-2.353,5.807-1.029,6.116,3.8c2.434,37.994-34.922,73.186-72.722,68.343C28.706,129.905,4.087,103.417,3.684,69.934z"/>
			<path fill-rule="evenodd" clip-rule="evenodd" fill="#116E92" d="M133.211,47.989c-8.459-27.589-33.869-45.96-63.945-45.97
				C40.711,2.01,14.983,21.048,6.688,47.93c-1.313,4.255-0.34,6.049,3.481,7.819c9.545,4.421,18.812,9.443,28.372,13.828
				c4.352,1.994,6.56,4.239,7.234,9.508c1.883,14.715,10.694,22.193,24.404,22.146c12.785-0.043,21.429-7.226,23.424-20.67
				c0.76-5.127,2.978-7.706,7.346-9.723c9.556-4.411,18.84-9.423,28.455-13.693C134.081,55.068,134.588,52.48,133.211,47.989z
				 M62.038,63.093c-1.834,0.637-2.512-1.136-3.104-2.404c-4.347-9.295-8.637-18.617-12.926-27.939
				c-0.756-1.644-1.303-3.294,1.07-4.05c1.91,0.063,2.421,1.5,3.039,2.825c4.233,9.08,8.504,18.143,12.659,27.259
				C63.435,60.227,64.491,62.241,62.038,63.093z M91.295,32.978c-3.371,8.718-7.208,18.734-11.184,28.693
				c-0.24,0.602-1.64,1.149-2.408,1.043c-1.495-0.203-1.86-1.591-1.394-2.802c3.76-9.772,7.581-19.521,11.462-29.245
				c0.459-1.15,1.516-2.048,2.92-1.43C91.647,29.656,92.012,30.583,91.295,32.978z"/>
		</g>
		<g>
			<path fill="#254D72" d="M191.4,89.994c2.335,0,4.422-0.387,6.259-1.16c1.837-0.772,3.392-1.881,4.662-3.322
				c1.271-1.442,2.242-3.203,2.912-5.282c0.67-2.077,1.004-4.438,1.004-7.083v-44.46h17.414v44.46c0,4.602-0.747,8.827-2.241,12.674
				c-1.494,3.847-3.632,7.161-6.414,9.943c-2.783,2.781-6.166,4.946-10.149,6.492c-3.985,1.545-8.467,2.318-13.447,2.318
				c-5.016,0-9.515-0.773-13.498-2.318c-3.985-1.546-7.368-3.711-10.149-6.492c-2.783-2.782-4.913-6.097-6.388-9.943
				c-1.478-3.847-2.216-8.072-2.216-12.674v-44.46h17.414v44.409c0,2.645,0.335,5.007,1.004,7.085
				c0.669,2.077,1.64,3.847,2.911,5.306c1.27,1.46,2.824,2.576,4.663,3.349C186.978,89.607,189.064,89.994,191.4,89.994z"/>
			<path fill="#254D72" d="M274.423,73.503c0.636,1.41,1.245,2.854,1.83,4.332c0.583-1.513,1.202-2.981,1.855-4.41
				c0.652-1.427,1.322-2.811,2.009-4.151l19.268-37.958c0.343-0.652,0.695-1.16,1.056-1.521c0.361-0.359,0.765-0.627,1.211-0.799
				c0.445-0.172,0.952-0.257,1.52-0.257c0.566,0,1.228,0,1.982,0h13.294v75.012h-15.354V60.576c0-2.094,0.104-4.362,0.309-6.8
				l-19.885,38.587c-0.618,1.203-1.452,2.113-2.499,2.732c-1.048,0.617-2.241,0.927-3.58,0.927h-2.37
				c-1.339,0-2.533-0.31-3.581-0.927c-1.047-0.619-1.88-1.529-2.498-2.732l-19.99-38.639c0.137,1.203,0.241,2.395,0.31,3.581
				c0.068,1.186,0.103,2.276,0.103,3.271v43.174h-15.353V28.738h13.292c0.755,0,1.417,0,1.984,0c0.566,0,1.073,0.085,1.52,0.257
				c0.446,0.171,0.85,0.439,1.211,0.799c0.36,0.361,0.712,0.869,1.055,1.521l19.321,38.113
				C273.127,70.735,273.788,72.093,274.423,73.503z"/>
			<path fill="#254D72" d="M384.393,28.686v13.807H363.27v61.257h-17.413V42.493h-21.124V28.686H384.393z"/>
			<path fill="#254D72" d="M452.297,103.75h-13.499c-1.512,0-2.756-0.352-3.734-1.058c-0.979-0.703-1.658-1.604-2.035-2.704
				l-4.431-13.085h-28.542l-4.43,13.085c-0.345,0.962-1.016,1.83-2.011,2.603c-0.996,0.773-2.215,1.159-3.657,1.159h-13.601
				l29.056-75.064h17.826L452.297,103.75z M404.074,75.053h20.505l-6.903-20.556c-0.447-1.305-0.972-2.842-1.571-4.611
				c-0.603-1.769-1.194-3.685-1.777-5.745c-0.55,2.097-1.117,4.037-1.701,5.821c-0.585,1.787-1.133,3.333-1.648,4.637
				L404.074,75.053z"/>
			<path fill="#254D72" d="M474.862,78.66v25.09h-17.413V28.686h26.481c5.288,0,9.831,0.626,13.626,1.879
				c3.794,1.255,6.92,2.981,9.377,5.178c2.455,2.199,4.267,4.792,5.435,7.78c1.167,2.987,1.752,6.217,1.752,9.685
				c0,3.745-0.601,7.179-1.804,10.304c-1.202,3.126-3.039,5.806-5.511,8.036c-2.474,2.233-5.609,3.976-9.404,5.229
				c-3.794,1.256-8.286,1.882-13.471,1.882H474.862z M474.862,65.522h9.068c4.532,0,7.796-1.083,9.788-3.247
				c1.99-2.163,2.987-5.186,2.987-9.067c0-1.717-0.257-3.28-0.772-4.688c-0.515-1.407-1.297-2.619-2.344-3.633
				c-1.048-1.013-2.371-1.792-3.967-2.343c-1.597-0.55-3.496-0.826-5.692-0.826h-9.068V65.522z"/>
			<path fill="#EAA327" d="M596.344,66.192c0,5.426-0.936,10.475-2.809,15.146c-1.872,4.671-4.507,8.732-7.908,12.185
				c-3.4,3.451-7.496,6.156-12.286,8.114c-4.791,1.959-10.108,2.938-15.946,2.938c-5.84,0-11.163-0.979-15.972-2.938
				c-4.808-1.958-8.92-4.663-12.339-8.114c-3.418-3.452-6.062-7.514-7.934-12.185s-2.808-9.72-2.808-15.146
				c0-5.428,0.936-10.477,2.808-15.148c1.872-4.67,4.516-8.724,7.934-12.158c3.419-3.434,7.531-6.131,12.339-8.09
				c4.809-1.957,10.132-2.938,15.972-2.938c5.838,0,11.155,0.989,15.946,2.964c4.79,1.976,8.886,4.681,12.286,8.115
				c3.401,3.434,6.036,7.486,7.908,12.158C595.408,55.767,596.344,60.798,596.344,66.192z M578.518,66.192
				c0-3.71-0.481-7.05-1.443-10.022c-0.96-2.97-2.344-5.486-4.146-7.547c-1.804-2.061-4.011-3.641-6.621-4.74
				c-2.61-1.099-5.581-1.649-8.913-1.649c-3.365,0-6.361,0.55-8.989,1.649c-2.628,1.1-4.844,2.68-6.646,4.74
				c-1.804,2.061-3.187,4.577-4.148,7.547c-0.961,2.972-1.441,6.312-1.441,10.022c0,3.743,0.48,7.101,1.441,10.071
				c0.962,2.97,2.345,5.486,4.148,7.548c1.803,2.061,4.019,3.633,6.646,4.714c2.628,1.082,5.624,1.623,8.989,1.623
				c3.332,0,6.303-0.541,8.913-1.623c2.61-1.081,4.817-2.653,6.621-4.714c1.802-2.062,3.186-4.578,4.146-7.548
				C578.036,73.293,578.518,69.936,578.518,66.192z"/>
		</g>
	</g>
</g>
</svg>
